Coordinates
version=1
nRows=33
nColumns=34
inDegrees=no

Units are S.I. units (second, meters, Newtons, ...)
If the header above contains a line with 'inDegrees', this indicates whether rotational values are in degrees (yes) or radians (no).

endheader
time	pelvis_tilt	pelvis_list	pelvis_rotation	pelvis_tx	pelvis_ty	pelvis_tz	hip_flexion_r	hip_adduction_r	hip_rotation_r	knee_angle_r	ankle_angle_r	subtalar_angle_r	mtp_angle_r	hip_flexion_l	hip_adduction_l	hip_rotation_l	knee_angle_l	ankle_angle_l	subtalar_angle_l	mtp_angle_l	lumbar_extension	lumbar_bending	lumbar_rotation	arm_flex_r	arm_add_r	arm_rot_r	elbow_flex_r	pro_sup_r	arm_flex_l	arm_add_l	arm_rot_l	elbow_flex_l	pro_sup_l
0.79	0.00878579	0.0761297	-0.108859	0.731472	1.04715	-0.319373	-0.0684291	-0.201328	-0.197895	0.78563	-0.213597	-0.118053	-0.0334714	0.136244	0.00362408	-0.315884	-0.00619784	-0.0570715	0.27982	-0.0350532	-0.238534	-0.529911	-0.0439693	-0.05432	-0.164901	0.111696	0.827991	2.14343	-0.100413	-0.437547	-0.362576	0.660165	2.13183
0.8	0.00326534	0.0779248	-0.114696	0.741354	1.04847	-0.320742	-0.0314429	-0.212152	-0.189815	0.83694	-0.249881	-0.157322	-0.0334802	0.131216	0.00762492	-0.317132	-0.00712445	-0.0497475	0.274671	-0.035055	-0.231545	-0.535485	-0.0450121	-0.0583126	-0.169884	0.124083	0.833367	2.14357	-0.0843347	-0.441297	-0.354929	0.670493	2.12899
0.81	-0.00107972	0.0792564	-0.120472	0.751067	1.04977	-0.322107	0.00421927	-0.221991	-0.18246	0.885784	-0.279513	-0.197606	-0.0334889	0.125225	0.0112635	-0.318374	-0.0079795	-0.0426693	0.269782	-0.0350567	-0.226113	-0.540055	-0.0462842	-0.0619036	-0.175114	0.135478	0.839511	2.14363	-0.0677459	-0.445214	-0.345194	0.681194	2.12442
0.82	-0.00415157	0.080189	-0.126023	0.760634	1.05103	-0.323457	0.0380865	-0.23081	-0.176014	0.931551	-0.301582	-0.238127	-0.0334977	0.118167	0.0146229	-0.319646	-0.00861864	-0.035636	0.265357	-0.0350585	-0.222405	-0.543803	-0.0480064	-0.0650691	-0.180281	0.145603	0.845933	2.14361	-0.0506911	-0.449397	-0.333693	0.692033	2.11855
0.83	-0.00595742	0.0807389	-0.131208	0.770081	1.05227	-0.324781	0.069911	-0.238492	-0.170486	0.973764	-0.315714	-0.27786	-0.0335065	0.110027	0.0177141	-0.32096	-0.00895984	-0.0284937	0.261552	-0.0350602	-0.220447	-0.546845	-0.0503495	-0.0677797	-0.185083	0.154244	0.852126	2.14354	-0.0332375	-0.453901	-0.320829	0.702842	2.1119
0.84	-0.00661365	0.0808762	-0.135909	0.779428	1.05351	-0.326067	0.099658	-0.244847	-0.165745	1.01206	-0.322127	-0.31558	-0.0335152	0.100882	0.0204861	-0.322288	-0.00898071	-0.0211558	0.25845	-0.035062	-0.220126	-0.549234	-0.0534262	-0.0700092	-0.189249	0.161249	0.857624	2.14344	-0.0154732	-0.458754	-0.307035	0.713521	2.10498
0.85	-0.0063327	0.0805414	-0.140039	0.788691	1.05473	-0.327306	0.127468	-0.249644	-0.161576	1.04619	-0.32158	-0.349954	-0.033524	0.0909007	0.0228424	-0.323566	-0.00870703	-0.0136002	0.256053	-0.0350637	-0.221213	-0.550969	-0.0572914	-0.0717443	-0.192546	0.166524	0.862042	2.14333	0.00249743	-0.463953	-0.292722	0.724043	2.09825
0.86	-0.00539432	0.0796667	-0.143536	0.797879	1.05593	-0.328487	0.1536	-0.252648	-0.157735	1.07598	-0.315242	-0.379671	-0.0335327	0.0803173	0.0246648	-0.324706	-0.00819776	-0.0058518	0.254305	-0.0350655	-0.223394	-0.552015	-0.0619472	-0.0729911	-0.194802	0.170024	0.865113	2.14322	0.0205596	-0.469478	-0.27824	0.734446	2.09205
0.87	-0.00410854	0.0781994	-0.146372	0.806998	1.05709	-0.329604	0.178375	-0.253665	-0.154009	1.10132	-0.304497	-0.403589	-0.0335415	0.0694061	0.0258404	-0.325618	-0.00752823	0.00204044	0.253116	-0.0350672	-0.226318	-0.552324	-0.0673504	-0.0737791	-0.195907	0.171748	0.866704	2.14311	0.0385956	-0.475295	-0.263854	0.744822	2.08659
0.88	-0.00277508	0.0761191	-0.148543	0.816051	1.05818	-0.330653	0.202116	-0.252586	-0.150249	1.12216	-0.290745	-0.420867	-0.0335502	0.0584453	0.0262884	-0.326233	-0.00677365	0.0100254	0.252394	-0.035069	-0.229633	-0.551862	-0.0734224	-0.0741607	-0.195818	0.171734	0.866817	2.14302	0.0564932	-0.48136	-0.249739	0.755289	2.08194
0.89	-0.00164624	0.0734502	-0.150079	0.825042	1.05919	-0.331632	0.225092	-0.249419	-0.146389	1.1385	-0.27522	-0.431068	-0.033559	0.0476808	0.0259808	-0.326516	-0.00599612	0.0180655	0.252071	-0.0350707	-0.233033	-0.550623	-0.0800577	-0.0742078	-0.194563	0.170058	0.865575	2.14294	0.0741551	-0.48762	-0.235999	0.76597	2.07813
0.9	-0.000899351	0.070265	-0.151035	0.833973	1.06009	-0.332545	0.247492	-0.244294	-0.142445	1.15035	-0.258878	-0.434208	-0.0335678	0.0372974	0.0249541	-0.326489	-0.00523598	0.0261447	0.252123	-0.0350725	-0.236283	-0.548645	-0.0871332	-0.0740047	-0.192235	0.166841	0.863193	2.14287	0.0915066	-0.494015	-0.222688	0.776959	2.07525
0.91	-0.000621969	0.0666772	-0.151492	0.84285	1.06089	-0.333395	0.269402	-0.237463	-0.138499	1.1578	-0.242362	-0.430761	-0.0335765	0.0274023	0.0233099	-0.326233	-0.00450797	0.0342694	0.252584	-0.0350743	-0.239234	-0.54601	-0.094516	-0.0736395	-0.18898	0.16225	0.859948	2.1428	0.108502	-0.500472	-0.20983	0.788304	2.07341
0.92	-0.000812861	0.0628251	-0.151546	0.851679	1.06156	-0.334189	0.290808	-0.229272	-0.134677	1.1609	-0.226032	-0.421616	-0.0335853	0.0180219	0.0212035	-0.325896	-0.00380141	0.0424633	0.253553	-0.035076	-0.241824	-0.542842	-0.10207	-0.0731944	-0.184991	0.156515	0.856139	2.14274	0.125123	-0.506911	-0.197438	0.799996	2.07272
0.93	-0.00139936	0.0588584	-0.151301	0.860469	1.06212	-0.334934	0.311607	-0.220118	-0.13113	1.15976	-0.210052	-0.408003	-0.0335941	0.00910627	0.0188236	-0.325664	-0.0030897	0.0507515	0.255167	-0.0350778	-0.244069	-0.539291	-0.109665	-0.0727355	-0.180492	0.149928	0.85205	2.14268	0.141375	-0.513245	-0.185527	0.811977	2.07331
0.94	-0.00226216	0.0549298	-0.150862	0.869229	1.06256	-0.335637	0.331632	-0.210404	-0.128005	1.15447	-0.194492	-0.391391	-0.0336028	0.000546015	0.0163654	-0.325738	-0.0023404	0.0591464	0.257568	-0.0350796	-0.24604	-0.535512	-0.117179	-0.072306	-0.175721	0.142844	0.847924	2.14262	0.157276	-0.519386	-0.17413	0.82415	2.07525
0.95	-0.00325888	0.0511788	-0.150324	0.877969	1.0629	-0.336304	0.350675	-0.200496	-0.12544	1.14514	-0.179416	-0.373365	-0.0336116	-0.0078009	0.0140074	-0.3263	-0.0015236	0.0676373	0.260876	-0.0350814	-0.247845	-0.531645	-0.12451	-0.0719252	-0.170917	0.135674	0.84394	2.14256	0.172841	-0.525248	-0.163292	0.836405	2.07851
0.96	-0.0042496	0.0477153	-0.149763	0.886697	1.06316	-0.33694	0.368525	-0.190691	-0.12354	1.13187	-0.164941	-0.355492	-0.0336204	-0.0160798	0.0118937	-0.327497	-0.000615873	0.076188	0.265166	-0.0350832	-0.249594	-0.527805	-0.13157	-0.0715952	-0.166306	0.12885	0.840215	2.14249	0.188084	-0.530756	-0.153058	0.848637	2.08297
0.97	-0.00511947	0.0446133	-0.149231	0.895424	1.06333	-0.337548	0.384994	-0.181202	-0.122382	1.11475	-0.151244	-0.33919	-0.0336292	-0.0244118	0.0101231	-0.329418	0.000401612	0.0847411	0.270464	-0.0350849	-0.251384	-0.524075	-0.138283	-0.0713112	-0.162083	0.122789	0.83681	2.14242	0.203009	-0.535846	-0.143442	0.860764	2.08835
0.98	-0.00579365	0.0419116	-0.148756	0.904156	1.06343	-0.338132	0.399937	-0.172152	-0.122003	1.09389	-0.138542	-0.325595	-0.0336379	-0.0328734	0.00874527	-0.332108	0.00155004	0.0932331	0.276765	-0.0350867	-0.253284	-0.520508	-0.144578	-0.0710713	-0.15841	0.117844	0.833749	2.14235	0.217619	-0.540472	-0.134423	0.872734	2.09428
0.99	-0.00624302	0.0396203	-0.148338	0.9129	1.06346	-0.338692	0.413265	-0.163592	-0.122412	1.06939	-0.12704	-0.315462	-0.0336467	-0.0414838	0.00776366	-0.335586	0.00286445	0.101616	0.284075	-0.0350885	-0.255334	-0.517122	-0.150391	-0.0708837	-0.155399	0.114275	0.831035	2.14228	0.231916	-0.544598	-0.125934	0.884523	2.10036
1	-0.00648241	0.0377316	-0.147955	0.921659	1.06342	-0.33923	0.424947	-0.155513	-0.123591	1.04137	-0.116884	-0.309099	-0.0336555	-0.0502076	0.00714893	-0.33984	0.00438874	0.10986	0.292398	-0.0350903	-0.257537	-0.513915	-0.155663	-0.0707704	-0.153118	0.112219	0.828669	2.14221	0.245903	-0.548204	-0.117869	0.89613	2.10618
1.01	-0.00656456	0.0362319	-0.147567	0.930438	1.06331	-0.339748	0.435016	-0.147878	-0.125501	1.00996	-0.108122	-0.30635	-0.0336643	-0.0589688	0.00685951	-0.344792	0.00615708	0.117941	0.301683	-0.0350921	-0.259869	-0.51087	-0.160348	-0.0707659	-0.151585	0.111683	0.82666	2.14214	0.259584	-0.551276	-0.11009	0.907571	2.11132
1.02	-0.00657118	0.0351128	-0.147123	0.939238	1.06312	-0.340247	0.44356	-0.140641	-0.128092	0.97533	-0.100691	-0.306635	-0.0336731	-0.0676714	0.00686321	-0.35026	0.0081704	0.125816	0.311759	-0.0350939	-0.262277	-0.507966	-0.164419	-0.070912	-0.150776	0.112552	0.82502	2.14206	0.27295	-0.553807	-0.102456	0.918866	2.11542
1.03	-0.00660232	0.034378	-0.146568	0.948062	1.06284	-0.34073	0.450713	-0.133766	-0.131305	0.937675	-0.0944229	-0.309015	-0.0336819	-0.0762192	0.00715332	-0.355949	0.0103802	0.133416	0.322309	-0.0350957	-0.26469	-0.505187	-0.167874	-0.0712497	-0.15063	0.11462	0.823764	2.14199	0.285974	-0.555796	-0.0948483	0.930033	2.11819
1.04	-0.00676538	0.0340446	-0.145849	0.956915	1.06246	-0.341201	0.456648	-0.127234	-0.135076	0.897231	-0.089054	-0.312307	-0.0336906	-0.0845301	0.0077545	-0.361493	0.0126892	0.14065	0.332909	-0.0350975	-0.267021	-0.502523	-0.170742	-0.0718106	-0.15106	0.117618	0.822894	2.14192	0.298598	-0.55725	-0.0871995	0.941081	2.11956
1.05	-0.00716404	0.0341397	-0.144928	0.965801	1.06197	-0.341665	0.461553	-0.12104	-0.139331	0.854266	-0.0842588	-0.315197	-0.0336994	-0.0925392	0.00871373	-0.36655	0.0149769	0.147439	0.343156	-0.0350993	-0.269177	-0.499976	-0.173074	-0.0726116	-0.151967	0.121249	0.8224	2.14185	0.310725	-0.558182	-0.0795034	0.952008	2.11961
1.06	-0.00789009	0.0346968	-0.143786	0.974725	1.06135	-0.342124	0.465624	-0.115191	-0.143986	0.809078	-0.0796742	-0.316361	-0.0337082	-0.100201	0.0100928	-0.370866	0.0171185	0.153728	0.352746	-0.0351011	-0.271066	-0.497551	-0.174936	-0.0736528	-0.153246	0.125218	0.822247	2.14177	0.322223	-0.558615	-0.0718102	0.962811	2.11861
1.07	-0.00901817	0.0357511	-0.142424	0.983694	1.06058	-0.342579	0.469049	-0.109694	-0.148947	0.761979	-0.0749258	-0.314562	-0.033717	-0.107489	0.0119595	-0.374296	0.0190002	0.159499	0.361498	-0.0351029	-0.272599	-0.495262	-0.1764	-0.0749175	-0.154796	0.129254	0.822379	2.1417	0.332935	-0.558579	-0.0642119	0.973489	2.11694
1.08	-0.0106022	0.0373328	-0.140865	0.992713	1.05967	-0.343032	0.471997	-0.104551	-0.154108	0.713278	-0.0696521	-0.30872	-0.0337258	-0.114397	0.0143755	-0.376814	0.0205329	0.164763	0.369369	-0.0351047	-0.273702	-0.493123	-0.177531	-0.0763734	-0.156527	0.133123	0.822716	2.14163	0.342696	-0.558112	-0.056826	0.984049	2.115
1.09	-0.0126722	0.03946	-0.139146	1.00179	1.05859	-0.34348	0.474605	-0.0997498	-0.15936	0.663269	-0.0635263	-0.297956	-0.0337346	-0.120931	0.0173825	-0.378502	0.0216659	0.169567	0.376442	-0.0351066	-0.274319	-0.491145	-0.178381	-0.0779745	-0.158361	0.136636	0.823163	2.14155	0.351345	-0.557256	-0.0497808	0.994512	2.11316
1.1	-0.0152313	0.042131	-0.137314	1.01092	1.05735	-0.343921	0.476961	-0.0952583	-0.164599	0.612209	-0.0562771	-0.281611	-0.0337434	-0.127116	0.0209887	-0.379537	0.0223975	0.173985	0.382916	-0.0351084	-0.274425	-0.489326	-0.178986	-0.0796634	-0.160234	0.139652	0.823614	2.14148	0.358741	-0.556054	-0.0432009	1.0049	2.11173
1.11	-0.0182507	0.0453196	-0.135415	1.02012	1.05595	-0.344349	0.479096	-0.0910255	-0.169743	0.56032	-0.0477081	-0.259258	-0.0337522	-0.132989	0.0251582	-0.380168	0.0227822	0.178119	0.389083	-0.0351102	-0.274033	-0.487645	-0.179369	-0.0813745	-0.162093	0.142077	0.823958	2.14141	0.364776	-0.554552	-0.0371947	1.01526	2.11095
